<svg width="24" height="25" viewBox="0 0 24 25" fill="none" xmlns="http://www.w3.org/2000/svg">
<path opacity="0.6" fill-rule="evenodd" clip-rule="evenodd" d="M8.86805 12.5124L11.0738 14.7136L15.132 10.6622L16.2618 11.7989L11.0738 16.9779L7.73816 13.649L8.86805 12.5124ZM17.5493 7.86228H14.8844V5.19736L17.5493 7.86228ZM11.9989 0.5C18.6274 0.5 24 5.8726 24 12.4989C24 19.1274 18.6274 24.5 11.9989 24.5C5.3726 24.5 0 19.1274 0 12.4989C0 5.8726 5.3726 0.5 11.9989 0.5V0.5ZM11.8998 2.13181C6.16037 2.13181 1.50577 6.78641 1.50577 12.5259C1.50577 18.2654 6.16037 22.9177 11.8998 22.9177C17.6393 22.9177 22.2917 18.2654 22.2917 12.5259C22.2917 6.78641 17.6393 2.13181 11.8998 2.13181ZM8.0105 5.17936H13.7567V8.98992H17.5673V14.8194V18.2428C17.5673 19.1094 16.8583 19.8206 15.9895 19.8206H8.0105C7.1417 19.8206 6.43271 19.1094 6.43271 18.2428V6.75715C6.43271 5.88835 7.1417 5.17936 8.0105 5.17936Z" fill="#00C82C"/>
</svg>
