<svg width="21" height="27" viewBox="0 0 21 27" fill="none" xmlns="http://www.w3.org/2000/svg">
<path fill-rule="evenodd" clip-rule="evenodd" d="M3.05367 0.5H13.25V7.2665H20.0165V23.6963C20.0131 24.4389 19.7166 25.15 19.1915 25.675C18.6665 26.2001 17.9554 26.4966 17.2128 26.5H3.05367C2.31114 26.4966 1.6 26.2001 1.07495 25.675C0.549903 25.15 0.253419 24.4389 0.25 23.6963L0.25 3.30367C0.253419 2.56114 0.549903 1.85 1.07495 1.32495C1.6 0.799903 2.31114 0.503419 3.05367 0.5V0.5ZM4.462 16.3665C4.34065 16.2447 4.24447 16.1002 4.17896 15.9413C4.11345 15.7823 4.07988 15.612 4.08018 15.4401C4.08049 15.2682 4.11465 15.098 4.18072 14.9393C4.24679 14.7806 4.34347 14.6364 4.46525 14.5151C4.58703 14.3937 4.73152 14.2976 4.89047 14.232C5.04942 14.1665 5.21971 14.133 5.39163 14.1333C5.56355 14.1336 5.73373 14.1677 5.89245 14.2338C6.05116 14.2999 6.19531 14.3966 6.31667 14.5183L8.59167 16.7933L14.1362 11.2683C14.3792 11.0233 14.7097 10.8848 15.0549 10.8833C15.4001 10.8819 15.7317 11.0177 15.9768 11.2607C16.2218 11.5038 16.3603 11.8343 16.3617 12.1795C16.3632 12.5246 16.2274 12.8563 15.9843 13.1013L8.583 20.4853L4.46633 16.3687L4.462 16.3665ZM19.9851 5.26667H15.2552V0.531417L19.9851 5.26667Z" fill="#249508"/>
</svg>
