<svg width="20" height="27" viewBox="0 0 20 27" fill="none" xmlns="http://www.w3.org/2000/svg">
<path fill-rule="evenodd" clip-rule="evenodd" d="M19.9688 5.2643H15.181V0.530857L19.9688 5.2643ZM5.06242 15.1879H9.01373V11.2814H10.9863V15.1879H14.9376V17.138H10.9863V21.0383H9.01373V17.138H5.06242V15.1879ZM2.83396 0.5H13.1586V7.27H20V23.692C20 25.2349 18.7266 26.5 17.166 26.5H2.83396C1.27341 26.5 0 25.2349 0 23.692V3.3018C0 1.75896 1.27341 0.5 2.83396 0.5V0.5ZM11.8102 1.83302H2.83396C2.42821 1.83302 2.05368 1.99964 1.78527 2.26501C1.51685 2.53038 1.34831 2.90066 1.34831 3.3018V23.692C1.34831 24.0993 1.51685 24.4634 1.78527 24.735C2.05368 25.0004 2.42821 25.167 2.83396 25.167H17.166C17.5718 25.167 17.9463 25.0004 18.2147 24.735C18.4831 24.4634 18.6517 24.0993 18.6517 23.692V8.59684H11.8102V1.83302Z" fill="#70808A" fill-opacity="0.7"/>
</svg>
