<svg width="14" height="14" viewBox="0 0 14 14" fill="none" xmlns="http://www.w3.org/2000/svg">
<path d="M10.2175 8.90909L13.7544 12.3805C13.9131 12.5744 13.9999 12.8174 13.9999 13.068C13.9999 13.3187 13.9131 13.5617 13.7544 13.7556C13.5604 13.9144 13.3174 14.0011 13.0668 14.0011C12.8161 14.0011 12.5732 13.9144 12.3792 13.7556L8.90909 10.2175C7.94974 10.8934 6.80601 11.2586 5.63245 11.2636C4.14026 11.2512 2.70992 10.6657 1.63736 9.62818C0.599004 8.55576 0.0127648 7.12514 0 5.63245C0.0129277 4.13999 0.599155 2.70962 1.63736 1.63736C2.70962 0.599155 4.13999 0.0129277 5.63245 0C7.12514 0.0127648 8.55576 0.599004 9.62818 1.63736C10.6657 2.70992 11.2512 4.14026 11.2636 5.63245C11.2586 6.80601 10.8934 7.94974 10.2175 8.90909ZM8.97273 2.29091C8.08666 1.40484 6.8849 0.907059 5.63182 0.907059C4.37873 0.907059 3.17697 1.40484 2.29091 2.29091C1.40484 3.17697 0.907059 4.37873 0.907059 5.63182C0.907059 6.8849 1.40484 8.08666 2.29091 8.97273C3.19951 9.81511 4.3928 10.2832 5.63182 10.2832C6.87084 10.2832 8.06412 9.81511 8.97273 8.97273C9.81511 8.06412 10.2832 6.87084 10.2832 5.63182C10.2832 4.3928 9.81511 3.19951 8.97273 2.29091Z" fill="#204A6A"/>
</svg>
